<?xml version="1.0" standalone="no"?>
<!DOCTYPE svg PUBLIC "-//W3C//DTD SVG 20010904//EN"
 "http://www.w3.org/TR/2001/REC-SVG-20010904/DTD/svg10.dtd">
<svg version="1.0" xmlns="http://www.w3.org/2000/svg"
 width="640.000000pt" height="571.000000pt" viewBox="0 0 640.000000 571.000000"
 preserveAspectRatio="xMidYMid meet">

<g transform="translate(0.000000,571.000000) scale(0.100000,-0.100000)"
fill="#7F9FFB" stroke="none">
<path d="M1617 5358 c-99 -167 -204 -297 -366 -458 -183 -182 -341 -298 -530
-388 l-120 -58 67 -75 c220 -244 383 -536 466 -835 123 -445 -3 -874 -346
-1177 -92 -82 -95 -91 -79 -275 20 -224 57 -356 156 -557 84 -170 173 -293
320 -441 136 -138 231 -205 412 -291 160 -76 281 -116 543 -178 597 -143 765
-201 992 -347 l78 -50 88 56 c106 66 265 143 383 184 48 17 274 78 504 137
510 129 641 179 859 322 105 70 308 277 388 398 174 262 270 545 285 837 l6
118 -97 92 c-153 145 -252 290 -320 471 -75 201 -83 463 -20 710 69 274 239
570 490 854 l46 53 -28 10 c-76 29 -220 106 -314 167 -253 166 -488 416 -670
712 -34 56 -68 100 -74 98 -139 -53 -393 -123 -604 -167 -541 -113 -1284 -114
-1832 -4 -192 38 -494 122 -611 169 -12 4 -29 -16 -72 -87z m224 -63 c811
-254 1823 -262 2661 -19 103 30 191 54 196 54 5 0 33 -38 61 -85 190 -309 513
-611 844 -790 l58 -32 -64 -79 c-200 -249 -333 -507 -406 -787 -121 -467 -2
-892 344 -1227 l88 -85 -6 -105 c-20 -380 -189 -727 -495 -1022 -102 -98 -152
-132 -300 -207 -160 -81 -289 -125 -574 -195 -345 -85 -540 -139 -657 -183
-92 -34 -264 -117 -343 -165 l-37 -23 -38 23 c-77 47 -281 142 -378 177 -55
20 -244 72 -420 115 -455 113 -689 192 -847 287 -421 253 -700 710 -724 1183
l-6 115 94 91 c102 100 184 208 248 326 158 293 177 664 54 1020 -74 214 -225
485 -365 655 -32 39 -59 75 -59 80 0 4 51 37 113 73 166 97 297 198 443 344
126 126 265 299 349 435 21 33 41 61 46 61 4 0 58 -16 120 -35z"/>
<path d="M4580 5150 c-191 -64 -533 -132 -800 -160 -510 -53 -1036 -35 -1494
51 -150 28 -392 87 -451 109 -44 17 -52 12 -100 -56 -201 -281 -426 -502 -668
-658 -58 -37 -85 -61 -81 -69 4 -7 22 -30 39 -52 114 -144 269 -422 320 -575
69 -207 92 -466 61 -698 -14 -106 -60 -271 -100 -363 -6 -14 17 -16 216 -22
123 -3 378 -6 567 -7 296 -1 346 1 360 14 15 13 66 16 342 18 l324 3 26 100
c15 55 32 119 38 143 l12 42 557 -1 557 -1 -509 -59 c-280 -33 -512 -61 -514
-64 -5 -5 28 -139 38 -155 4 -6 219 -18 561 -30 787 -28 1061 -39 1065 -42 1
-2 -259 -16 -579 -32 -928 -45 -1046 -52 -1053 -58 -6 -6 -44 -191 -40 -195 1
-2 248 -34 796 -103 129 -17 242 -32 250 -34 8 -2 -244 -4 -561 -5 l-577 -1
-21 93 c-11 50 -29 128 -39 172 l-18 80 -323 1 c-308 0 -324 1 -340 20 -15 19
-27 19 -376 13 -198 -4 -463 -7 -590 -8 l-230 -2 -55 -86 c-30 -48 -98 -132
-151 -187 l-97 -101 9 -96 c35 -378 251 -750 564 -971 79 -56 259 -146 355
-178 105 -36 261 -71 284 -65 15 5 17 4 8 -3 -10 -7 -5 -11 20 -16 43 -8 48
-9 208 -51 74 -20 144 -37 155 -39 11 -2 27 -6 35 -9 50 -19 132 -37 142 -31
7 4 8 3 4 -4 -4 -7 -1 -12 9 -12 26 0 205 -73 347 -142 l128 -62 127 62 c238
113 381 162 692 233 270 62 482 120 592 165 288 114 499 295 665 569 45 74
130 262 122 270 -7 7 -1544 9 -1554 3 -12 -8 -275 -21 -314 -16 -14 1 -96 3
-182 3 -143 0 -159 -2 -185 -21 -73 -54 -96 -142 -48 -189 33 -34 98 -34 176
1 l58 26 98 -82 c54 -46 99 -86 101 -89 3 -8 9 -6 -423 -111 -187 -45 -475
-115 -640 -156 -165 -40 -301 -71 -303 -69 -2 2 95 102 216 222 187 185 222
224 227 255 8 44 1 71 -32 120 -40 59 -67 64 -478 93 -551 38 -691 48 -680 51
9 3 387 31 725 54 304 21 348 26 375 44 36 24 65 75 65 116 l0 35 173 73 c95
39 176 72 180 72 4 0 7 -12 7 -27 0 -78 44 -147 99 -159 52 -11 52 -12 26 -49
-31 -47 -22 -75 31 -93 32 -11 82 -11 269 -3 291 14 475 14 475 1 0 -7 268
-10 784 -10 739 0 785 1 790 18 9 30 36 206 36 238 0 25 -15 46 -83 116 -381
390 -492 921 -305 1457 41 118 123 300 176 391 51 87 152 233 164 238 18 8 4
22 -74 73 -44 30 -86 58 -92 64 -6 5 -38 30 -71 54 -74 55 -282 259 -350 343
-50 63 -167 215 -195 255 -15 21 -15 21 -70 3z m-1786 -498 c47 -2 86 -9 86
-14 0 -11 -43 -71 -79 -111 -22 -24 -23 -29 -11 -37 8 -5 23 -10 32 -10 25 0
79 -50 94 -87 32 -76 1 -166 -74 -214 -37 -23 -57 -29 -104 -29 -69 0 -118 21
-118 51 0 29 27 35 81 16 70 -25 113 -22 149 11 39 34 51 98 26 137 -27 40
-75 65 -128 65 -27 0 -48 2 -48 5 0 3 23 33 50 67 28 34 50 66 50 70 0 4 -30
8 -67 8 -55 0 -71 -4 -90 -22 -20 -19 -23 -19 -23 -4 0 38 68 136 80 115 5 -8
40 -14 94 -17z m-738 3 c5 -13 25 -14 115 -11 79 3 109 1 109 -7 0 -7 -16 -35
-36 -62 -71 -99 -118 -213 -130 -313 -6 -54 -8 -58 -50 -84 -36 -23 -46 -25
-50 -13 -3 8 39 105 93 215 l100 200 -98 0 c-94 0 -99 -1 -115 -25 -9 -14 -20
-25 -25 -25 -17 0 -9 35 21 88 30 52 55 66 66 37z m-206 -184 c0 -213 4 -241
32 -233 41 10 12 -22 -58 -65 -69 -43 -96 -43 -55 1 20 21 21 33 21 215 l0
193 -30 -7 c-19 -4 -30 -3 -30 4 0 14 102 81 113 74 4 -2 7 -84 7 -182z m610
60 c0 -65 3 -159 6 -209 6 -84 8 -90 25 -82 32 18 30 -7 -4 -32 -63 -48 -127
-81 -127 -66 0 8 9 23 20 33 19 18 20 29 18 209 l-3 191 -27 -3 c-16 -1 -28 2
-28 7 0 14 101 81 112 75 4 -3 8 -58 8 -123z m1405 -175 c-43 -85 -51 -122
-76 -321 -16 -134 -36 -201 -86 -296 -39 -73 -45 -91 -39 -121 15 -79 75 -114
142 -82 29 14 52 42 105 123 97 151 137 199 194 232 65 37 78 37 73 -1 -3 -16
-4 -30 -3 -30 1 0 16 11 35 25 18 14 35 23 37 21 2 -2 -6 -24 -17 -50 -35 -83
-49 -157 -65 -351 -14 -160 -21 -199 -42 -247 -24 -54 -99 -138 -123 -138 -6
0 -10 51 -10 140 l0 140 -164 0 c-191 0 -179 9 -169 -125 3 -45 3 -99 -1 -119
l-7 -36 -153 0 c-131 0 -155 2 -160 16 -3 9 -6 72 -6 140 l0 124 -165 0 -165
0 0 -140 0 -140 -165 0 -165 0 0 135 0 135 -170 0 -170 0 0 -130 c0 -71 -4
-130 -8 -130 -14 0 -59 54 -81 96 -81 162 -21 374 142 498 39 30 146 83 322
161 158 69 269 135 355 211 64 56 65 57 68 31 8 -64 -38 -148 -136 -251 -56
-59 -112 -135 -112 -152 0 -10 15 -6 54 17 30 16 111 52 180 78 134 52 242
118 304 185 21 23 72 93 114 157 42 63 93 130 114 148 35 32 226 131 250 131
6 0 -8 -38 -31 -84z m162 -2302 c-3 -3 -12 -4 -19 -1 -8 3 -5 6 6 6 11 1 17
-2 13 -5z m-30 -30 c-3 -3 -12 -4 -19 -1 -8 3 -5 6 6 6 11 1 17 -2 13 -5z
m-237 -34 c0 -5 -2 -10 -4 -10 -3 0 -8 5 -11 10 -3 6 -1 10 4 10 6 0 11 -4 11
-10z m-85 -10 c3 -5 1 -10 -4 -10 -6 0 -11 5 -11 10 0 6 2 10 4 10 3 0 8 -4
11 -10z m250 -340 c3 -5 -1 -10 -9 -10 -9 0 -16 5 -16 10 0 6 4 10 9 10 6 0
13 -4 16 -10z m-287 -35 c-3 -3 -9 2 -12 12 -6 14 -5 15 5 6 7 -7 10 -15 7
-18z m387 -24 c-6 -5 -25 10 -25 20 0 5 6 4 14 -3 8 -7 12 -15 11 -17z m-215
-50 c0 -6 -4 -13 -10 -16 -5 -3 -10 1 -10 9 0 9 5 16 10 16 6 0 10 -4 10 -9z
m294 -16 c-4 -8 -1 -15 5 -15 6 0 11 -4 11 -10 0 -12 -10 -13 -29 -1 -12 8
-12 12 -2 25 17 20 22 20 15 1z m83 -147 c-3 -8 -6 -5 -6 6 -1 11 2 17 5 13 3
-3 4 -12 1 -19z m-427 2 c0 -5 -2 -10 -4 -10 -3 0 -8 5 -11 10 -3 6 -1 10 4
10 6 0 11 -4 11 -10z m369 -83 c-2 -1 -13 -9 -24 -17 -19 -14 -19 -14 -6 3 7
9 18 17 24 17 6 0 8 -1 6 -3z m-339 -57 c0 -5 -7 -10 -16 -10 -8 0 -12 5 -9
10 3 6 10 10 16 10 5 0 9 -4 9 -10z m200 -30 c0 -5 -4 -10 -10 -10 -5 0 -10 5
-10 10 0 6 5 10 10 10 6 0 10 -4 10 -10z m-770 -24 c0 -2 -7 -7 -16 -10 -8 -3
-12 -2 -9 4 6 10 25 14 25 6z m50 -16 c-8 -5 -22 -9 -30 -9 -10 0 -8 3 5 9 27
12 43 12 25 0z m560 -20 c8 -5 11 -10 5 -10 -5 0 -17 5 -25 10 -8 5 -10 10 -5
10 6 0 17 -5 25 -10z m-935 -58 c-3 -3 -11 0 -18 7 -9 10 -8 11 6 5 10 -3 15
-9 12 -12z m632 -18 c-3 -3 -12 -4 -19 -1 -8 3 -5 6 6 6 11 1 17 -2 13 -5z
m-957 -54 c8 -5 11 -10 5 -10 -5 0 -17 5 -25 10 -8 5 -10 10 -5 10 6 0 17 -5
25 -10z m834 -35 c-4 -8 -10 -15 -14 -15 -4 0 -13 7 -20 15 -11 13 -8 15 13
15 19 0 25 -4 21 -15z m-279 -105 c-3 -5 -12 -7 -20 -3 -21 7 -19 13 6 13 11
0 18 -4 14 -10z"/>
</g>
</svg>
